<mxfile host="app.diagrams.net" modified="2023-11-23T22:03:57.446Z" agent="Mozilla/5.0 (X11; Linux x86_64) AppleWebKit/537.36 (KHTML, like Gecko) Chrome/119.0.0.0 Safari/537.36" etag="UiBPbsK-i9bbp5CYscKf" version="22.1.3" type="device" pages="2">
  <diagram name="Page-1" id="X0O1OpTqf4LU2LDSWNgu">
    <mxGraphModel dx="1362" dy="803" grid="1" gridSize="10" guides="1" tooltips="1" connect="1" arrows="1" fold="1" page="1" pageScale="1" pageWidth="850" pageHeight="1100" math="0" shadow="0">
      <root>
        <mxCell id="0" />
        <mxCell id="1" parent="0" />
        <mxCell id="vId0Pkaoqg5BExLHZ7V7-167" value="" style="rounded=0;whiteSpace=wrap;html=1;fillColor=none;strokeColor=none;" parent="1" vertex="1">
          <mxGeometry x="20" y="660" width="460" height="180" as="geometry" />
        </mxCell>
        <mxCell id="vId0Pkaoqg5BExLHZ7V7-166" value="" style="rounded=0;whiteSpace=wrap;html=1;fillColor=none;strokeColor=none;" parent="1" vertex="1">
          <mxGeometry x="20" y="340" width="660" height="280" as="geometry" />
        </mxCell>
        <mxCell id="vId0Pkaoqg5BExLHZ7V7-165" value="" style="rounded=0;whiteSpace=wrap;html=1;fillColor=none;strokeColor=none;" parent="1" vertex="1">
          <mxGeometry x="20" y="20" width="660" height="280" as="geometry" />
        </mxCell>
        <mxCell id="vId0Pkaoqg5BExLHZ7V7-1" value="" style="rounded=0;whiteSpace=wrap;html=1;fillColor=none;" parent="1" vertex="1">
          <mxGeometry x="80" y="40" width="160" height="240" as="geometry" />
        </mxCell>
        <mxCell id="vId0Pkaoqg5BExLHZ7V7-7" value="" style="group" parent="1" vertex="1" connectable="0">
          <mxGeometry x="80" y="40" width="160" height="130" as="geometry" />
        </mxCell>
        <mxCell id="vId0Pkaoqg5BExLHZ7V7-4" value="" style="rounded=0;whiteSpace=wrap;html=1;strokeColor=#0000FF;strokeWidth=2;fillColor=#DAE8FC;" parent="1" vertex="1">
          <mxGeometry x="90" y="90" width="140" height="60" as="geometry" />
        </mxCell>
        <mxCell id="vId0Pkaoqg5BExLHZ7V7-8" value="" style="rounded=0;whiteSpace=wrap;html=1;fillColor=none;" parent="1" vertex="1">
          <mxGeometry x="280" y="40" width="160" height="240" as="geometry" />
        </mxCell>
        <mxCell id="vId0Pkaoqg5BExLHZ7V7-9" value="" style="group;fillColor=none;" parent="1" vertex="1" connectable="0">
          <mxGeometry x="280" y="80" width="160" height="120" as="geometry" />
        </mxCell>
        <mxCell id="vId0Pkaoqg5BExLHZ7V7-13" value="&lt;font color=&quot;#0000ff&quot;&gt;&lt;b&gt;ACTIVE&lt;/b&gt;&lt;/font&gt;" style="rounded=0;whiteSpace=wrap;html=1;strokeColor=#0000FF;strokeWidth=4;fillColor=#DAE8FC;" parent="1" vertex="1">
          <mxGeometry x="290" y="90" width="140" height="60" as="geometry" />
        </mxCell>
        <mxCell id="vId0Pkaoqg5BExLHZ7V7-18" value="" style="rounded=0;whiteSpace=wrap;html=1;fillColor=none;" parent="1" vertex="1">
          <mxGeometry x="480" y="40" width="160" height="240" as="geometry" />
        </mxCell>
        <mxCell id="vId0Pkaoqg5BExLHZ7V7-19" value="" style="group;fillColor=none;" parent="1" vertex="1" connectable="0">
          <mxGeometry x="480" y="80" width="160" height="120" as="geometry" />
        </mxCell>
        <mxCell id="vId0Pkaoqg5BExLHZ7V7-20" value="" style="rounded=0;whiteSpace=wrap;html=1;strokeColor=#0000FF;strokeWidth=2;fillColor=#DAE8FC;" parent="1" vertex="1">
          <mxGeometry x="490" y="90" width="140" height="60" as="geometry" />
        </mxCell>
        <mxCell id="vId0Pkaoqg5BExLHZ7V7-27" value="page" style="text;html=1;strokeColor=none;fillColor=none;align=center;verticalAlign=middle;whiteSpace=wrap;rounded=0;" parent="1" vertex="1">
          <mxGeometry x="130" y="280" width="60" height="20" as="geometry" />
        </mxCell>
        <mxCell id="vId0Pkaoqg5BExLHZ7V7-28" value="&lt;font color=&quot;#ff0000&quot;&gt;viewport&lt;/font&gt;" style="text;html=1;strokeColor=none;fillColor=none;align=center;verticalAlign=middle;whiteSpace=wrap;rounded=0;" parent="1" vertex="1">
          <mxGeometry x="20" y="40" width="60" height="20" as="geometry" />
        </mxCell>
        <mxCell id="vId0Pkaoqg5BExLHZ7V7-29" value="&lt;font color=&quot;#0000ff&quot;&gt;section&lt;/font&gt;" style="text;html=1;strokeColor=none;fillColor=none;align=center;verticalAlign=middle;whiteSpace=wrap;rounded=0;" parent="1" vertex="1">
          <mxGeometry x="20" y="110" width="60" height="20" as="geometry" />
        </mxCell>
        <mxCell id="vId0Pkaoqg5BExLHZ7V7-31" value="" style="shape=singleArrow;direction=south;whiteSpace=wrap;html=1;strokeColor=#FF0000;fillColor=#F8CECC;" parent="1" vertex="1">
          <mxGeometry x="250" y="80" width="20" height="40" as="geometry" />
        </mxCell>
        <mxCell id="vId0Pkaoqg5BExLHZ7V7-98" value="" style="rounded=0;whiteSpace=wrap;html=1;fillColor=none;" parent="1" vertex="1">
          <mxGeometry x="80" y="360" width="160" height="240" as="geometry" />
        </mxCell>
        <mxCell id="vId0Pkaoqg5BExLHZ7V7-100" value="" style="group" parent="1" vertex="1" connectable="0">
          <mxGeometry x="80" y="360" width="160" height="130" as="geometry" />
        </mxCell>
        <mxCell id="vId0Pkaoqg5BExLHZ7V7-102" value="" style="rounded=0;whiteSpace=wrap;html=1;fillColor=none;" parent="1" vertex="1">
          <mxGeometry x="280" y="360" width="160" height="240" as="geometry" />
        </mxCell>
        <mxCell id="vId0Pkaoqg5BExLHZ7V7-103" value="" style="group;fillColor=none;" parent="1" vertex="1" connectable="0">
          <mxGeometry x="280" y="400" width="160" height="120" as="geometry" />
        </mxCell>
        <mxCell id="vId0Pkaoqg5BExLHZ7V7-104" value="&lt;font&gt;&lt;b&gt;ACTIVE&lt;/b&gt;&lt;/font&gt;" style="rounded=0;whiteSpace=wrap;html=1;strokeColor=#0000FF;strokeWidth=4;fillColor=#DAE8FC;fontColor=#0000FF;fontStyle=0" parent="1" vertex="1">
          <mxGeometry x="290" y="410" width="140" height="60" as="geometry" />
        </mxCell>
        <mxCell id="vId0Pkaoqg5BExLHZ7V7-105" value="" style="rounded=0;whiteSpace=wrap;html=1;fillColor=none;" parent="1" vertex="1">
          <mxGeometry x="480" y="360" width="160" height="240" as="geometry" />
        </mxCell>
        <mxCell id="vId0Pkaoqg5BExLHZ7V7-106" value="" style="group;fillColor=none;" parent="1" vertex="1" connectable="0">
          <mxGeometry x="480" y="400" width="160" height="120" as="geometry" />
        </mxCell>
        <mxCell id="vId0Pkaoqg5BExLHZ7V7-107" value="" style="rounded=0;whiteSpace=wrap;html=1;strokeColor=#0000FF;strokeWidth=2;fillColor=#DAE8FC;" parent="1" vertex="1">
          <mxGeometry x="490" y="410" width="140" height="60" as="geometry" />
        </mxCell>
        <mxCell id="vId0Pkaoqg5BExLHZ7V7-108" value="page" style="text;html=1;strokeColor=none;fillColor=none;align=center;verticalAlign=middle;whiteSpace=wrap;rounded=0;" parent="1" vertex="1">
          <mxGeometry x="130" y="600" width="60" height="20" as="geometry" />
        </mxCell>
        <mxCell id="vId0Pkaoqg5BExLHZ7V7-109" value="&lt;font color=&quot;#ff0000&quot;&gt;viewport&lt;/font&gt;" style="text;html=1;strokeColor=none;fillColor=none;align=center;verticalAlign=middle;whiteSpace=wrap;rounded=0;" parent="1" vertex="1">
          <mxGeometry x="20" y="360" width="60" height="20" as="geometry" />
        </mxCell>
        <mxCell id="vId0Pkaoqg5BExLHZ7V7-110" value="&lt;font color=&quot;#0000ff&quot;&gt;section&lt;/font&gt;" style="text;html=1;strokeColor=none;fillColor=none;align=center;verticalAlign=middle;whiteSpace=wrap;rounded=0;" parent="1" vertex="1">
          <mxGeometry x="20" y="430" width="60" height="20" as="geometry" />
        </mxCell>
        <mxCell id="vId0Pkaoqg5BExLHZ7V7-111" value="" style="shape=singleArrow;direction=south;whiteSpace=wrap;html=1;strokeColor=#FF0000;fillColor=#F8CECC;" parent="1" vertex="1">
          <mxGeometry x="250" y="400" width="20" height="40" as="geometry" />
        </mxCell>
        <mxCell id="vId0Pkaoqg5BExLHZ7V7-112" value="" style="shape=singleArrow;direction=south;whiteSpace=wrap;html=1;strokeColor=#FF0000;fillColor=#F8CECC;" parent="1" vertex="1">
          <mxGeometry x="450" y="440" width="20" height="40" as="geometry" />
        </mxCell>
        <mxCell id="vId0Pkaoqg5BExLHZ7V7-113" value="" style="shape=singleArrow;direction=south;whiteSpace=wrap;html=1;strokeColor=#FF0000;fillColor=#F8CECC;" parent="1" vertex="1">
          <mxGeometry x="650" y="479.5" width="20" height="40" as="geometry" />
        </mxCell>
        <mxCell id="vId0Pkaoqg5BExLHZ7V7-101" value="" style="rounded=0;whiteSpace=wrap;html=1;strokeColor=#0000FF;strokeWidth=2;fillColor=#DAE8FC;" parent="1" vertex="1">
          <mxGeometry x="90" y="410" width="140" height="60" as="geometry" />
        </mxCell>
        <mxCell id="vId0Pkaoqg5BExLHZ7V7-131" value="" style="group" parent="1" vertex="1" connectable="0">
          <mxGeometry x="80" y="360" width="160" height="120" as="geometry" />
        </mxCell>
        <mxCell id="vId0Pkaoqg5BExLHZ7V7-123" value="" style="rounded=0;whiteSpace=wrap;html=1;strokeColor=none;fillColor=#00FF00;opacity=80;" parent="vId0Pkaoqg5BExLHZ7V7-131" vertex="1">
          <mxGeometry y="30" width="160" height="20" as="geometry" />
        </mxCell>
        <mxCell id="vId0Pkaoqg5BExLHZ7V7-116" value="" style="rounded=0;whiteSpace=wrap;html=1;strokeColor=#FF0000;strokeWidth=2;fillColor=none;" parent="vId0Pkaoqg5BExLHZ7V7-131" vertex="1">
          <mxGeometry width="160" height="120" as="geometry" />
        </mxCell>
        <mxCell id="vId0Pkaoqg5BExLHZ7V7-132" value="" style="group" parent="1" vertex="1" connectable="0">
          <mxGeometry x="280" y="399.5" width="160" height="120" as="geometry" />
        </mxCell>
        <mxCell id="vId0Pkaoqg5BExLHZ7V7-133" value="" style="rounded=0;whiteSpace=wrap;html=1;strokeColor=none;fillColor=#00FF00;opacity=80;" parent="vId0Pkaoqg5BExLHZ7V7-132" vertex="1">
          <mxGeometry y="30" width="160" height="20" as="geometry" />
        </mxCell>
        <mxCell id="vId0Pkaoqg5BExLHZ7V7-134" value="" style="rounded=0;whiteSpace=wrap;html=1;strokeColor=#FF0000;strokeWidth=2;fillColor=none;" parent="vId0Pkaoqg5BExLHZ7V7-132" vertex="1">
          <mxGeometry width="160" height="120" as="geometry" />
        </mxCell>
        <mxCell id="vId0Pkaoqg5BExLHZ7V7-135" value="" style="group" parent="1" vertex="1" connectable="0">
          <mxGeometry x="480" y="440" width="160" height="120" as="geometry" />
        </mxCell>
        <mxCell id="vId0Pkaoqg5BExLHZ7V7-136" value="" style="rounded=0;whiteSpace=wrap;html=1;strokeColor=none;fillColor=#00FF00;opacity=80;" parent="vId0Pkaoqg5BExLHZ7V7-135" vertex="1">
          <mxGeometry y="30" width="160" height="20" as="geometry" />
        </mxCell>
        <mxCell id="vId0Pkaoqg5BExLHZ7V7-137" value="" style="rounded=0;whiteSpace=wrap;html=1;strokeColor=#FF0000;strokeWidth=2;fillColor=none;" parent="vId0Pkaoqg5BExLHZ7V7-135" vertex="1">
          <mxGeometry width="160" height="120" as="geometry" />
        </mxCell>
        <mxCell id="vId0Pkaoqg5BExLHZ7V7-138" value="" style="group" parent="1" vertex="1" connectable="0">
          <mxGeometry x="80" y="40" width="160" height="120" as="geometry" />
        </mxCell>
        <mxCell id="vId0Pkaoqg5BExLHZ7V7-5" value="" style="endArrow=none;html=1;rounded=0;exitX=-0.006;exitY=0.329;exitDx=0;exitDy=0;exitPerimeter=0;entryX=1.003;entryY=0.325;entryDx=0;entryDy=0;entryPerimeter=0;strokeColor=#00FF00;strokeWidth=2;opacity=80;" parent="vId0Pkaoqg5BExLHZ7V7-138" source="vId0Pkaoqg5BExLHZ7V7-3" target="vId0Pkaoqg5BExLHZ7V7-3" edge="1">
          <mxGeometry width="50" height="50" relative="1" as="geometry">
            <mxPoint x="90" y="100" as="sourcePoint" />
            <mxPoint x="140" y="50" as="targetPoint" />
          </mxGeometry>
        </mxCell>
        <mxCell id="vId0Pkaoqg5BExLHZ7V7-3" value="" style="rounded=0;whiteSpace=wrap;html=1;strokeColor=#FF0000;strokeWidth=2;fillColor=none;" parent="vId0Pkaoqg5BExLHZ7V7-138" vertex="1">
          <mxGeometry width="160" height="120" as="geometry" />
        </mxCell>
        <mxCell id="vId0Pkaoqg5BExLHZ7V7-139" value="" style="group" parent="1" vertex="1" connectable="0">
          <mxGeometry x="280" y="80" width="160" height="120" as="geometry" />
        </mxCell>
        <mxCell id="vId0Pkaoqg5BExLHZ7V7-140" value="" style="endArrow=none;html=1;rounded=0;exitX=-0.006;exitY=0.329;exitDx=0;exitDy=0;exitPerimeter=0;entryX=1.003;entryY=0.325;entryDx=0;entryDy=0;entryPerimeter=0;strokeColor=#00FF00;strokeWidth=2;opacity=80;" parent="vId0Pkaoqg5BExLHZ7V7-139" source="vId0Pkaoqg5BExLHZ7V7-141" target="vId0Pkaoqg5BExLHZ7V7-141" edge="1">
          <mxGeometry width="50" height="50" relative="1" as="geometry">
            <mxPoint x="90" y="100" as="sourcePoint" />
            <mxPoint x="140" y="50" as="targetPoint" />
          </mxGeometry>
        </mxCell>
        <mxCell id="vId0Pkaoqg5BExLHZ7V7-141" value="" style="rounded=0;whiteSpace=wrap;html=1;strokeColor=#FF0000;strokeWidth=2;fillColor=none;" parent="vId0Pkaoqg5BExLHZ7V7-139" vertex="1">
          <mxGeometry width="160" height="120" as="geometry" />
        </mxCell>
        <mxCell id="vId0Pkaoqg5BExLHZ7V7-142" value="" style="group" parent="1" vertex="1" connectable="0">
          <mxGeometry x="480" y="120" width="160" height="120" as="geometry" />
        </mxCell>
        <mxCell id="vId0Pkaoqg5BExLHZ7V7-143" value="" style="endArrow=none;html=1;rounded=0;exitX=-0.006;exitY=0.329;exitDx=0;exitDy=0;exitPerimeter=0;entryX=1.003;entryY=0.325;entryDx=0;entryDy=0;entryPerimeter=0;strokeColor=#00FF00;strokeWidth=2;opacity=80;" parent="vId0Pkaoqg5BExLHZ7V7-142" source="vId0Pkaoqg5BExLHZ7V7-144" target="vId0Pkaoqg5BExLHZ7V7-144" edge="1">
          <mxGeometry width="50" height="50" relative="1" as="geometry">
            <mxPoint x="90" y="100" as="sourcePoint" />
            <mxPoint x="140" y="50" as="targetPoint" />
          </mxGeometry>
        </mxCell>
        <mxCell id="vId0Pkaoqg5BExLHZ7V7-144" value="" style="rounded=0;whiteSpace=wrap;html=1;strokeColor=#FF0000;strokeWidth=2;fillColor=none;" parent="vId0Pkaoqg5BExLHZ7V7-142" vertex="1">
          <mxGeometry width="160" height="120" as="geometry" />
        </mxCell>
        <mxCell id="vId0Pkaoqg5BExLHZ7V7-145" value="" style="rounded=0;whiteSpace=wrap;html=1;fillColor=none;" parent="1" vertex="1">
          <mxGeometry x="80" y="680" width="160" height="140" as="geometry" />
        </mxCell>
        <mxCell id="vId0Pkaoqg5BExLHZ7V7-149" value="&lt;font color=&quot;#ff0000&quot;&gt;viewport&lt;/font&gt;" style="text;html=1;strokeColor=none;fillColor=none;align=center;verticalAlign=middle;whiteSpace=wrap;rounded=0;" parent="1" vertex="1">
          <mxGeometry x="20" y="680" width="60" height="20" as="geometry" />
        </mxCell>
        <mxCell id="vId0Pkaoqg5BExLHZ7V7-154" value="page" style="text;html=1;strokeColor=none;fillColor=none;align=center;verticalAlign=middle;whiteSpace=wrap;rounded=0;" parent="1" vertex="1">
          <mxGeometry x="130" y="820" width="60" height="20" as="geometry" />
        </mxCell>
        <mxCell id="vId0Pkaoqg5BExLHZ7V7-155" value="" style="rounded=0;whiteSpace=wrap;html=1;fillColor=none;" parent="1" vertex="1">
          <mxGeometry x="280.96" y="680" width="160" height="140" as="geometry" />
        </mxCell>
        <mxCell id="vId0Pkaoqg5BExLHZ7V7-147" value="NEVER ACTIVE" style="rounded=0;whiteSpace=wrap;html=1;strokeColor=#0000FF;strokeWidth=2;fillColor=#DAE8FC;fontColor=#0000FF;fontStyle=0" parent="1" vertex="1">
          <mxGeometry x="90" y="690" width="140" height="20" as="geometry" />
        </mxCell>
        <mxCell id="vId0Pkaoqg5BExLHZ7V7-168" value="" style="shape=singleArrow;direction=south;whiteSpace=wrap;html=1;strokeColor=#FF0000;fillColor=#F8CECC;" parent="1" vertex="1">
          <mxGeometry x="450" y="120" width="20" height="40" as="geometry" />
        </mxCell>
        <mxCell id="vId0Pkaoqg5BExLHZ7V7-169" value="" style="shape=singleArrow;direction=south;whiteSpace=wrap;html=1;strokeColor=#FF0000;fillColor=#F8CECC;" parent="1" vertex="1">
          <mxGeometry x="650" y="160" width="20" height="40" as="geometry" />
        </mxCell>
        <mxCell id="vId0Pkaoqg5BExLHZ7V7-152" value="" style="endArrow=none;html=1;rounded=0;exitX=-0.006;exitY=0.329;exitDx=0;exitDy=0;exitPerimeter=0;entryX=1.003;entryY=0.325;entryDx=0;entryDy=0;entryPerimeter=0;strokeColor=#00FF00;strokeWidth=2;opacity=80;" parent="1" source="vId0Pkaoqg5BExLHZ7V7-153" target="vId0Pkaoqg5BExLHZ7V7-153" edge="1">
          <mxGeometry width="50" height="50" relative="1" as="geometry">
            <mxPoint x="170" y="780" as="sourcePoint" />
            <mxPoint x="220" y="730" as="targetPoint" />
          </mxGeometry>
        </mxCell>
        <mxCell id="vId0Pkaoqg5BExLHZ7V7-153" value="" style="rounded=0;whiteSpace=wrap;html=1;strokeColor=#FF0000;strokeWidth=2;fillColor=none;" parent="1" vertex="1">
          <mxGeometry x="80" y="680" width="160" height="120" as="geometry" />
        </mxCell>
        <mxCell id="vId0Pkaoqg5BExLHZ7V7-159" value="" style="endArrow=none;html=1;rounded=0;exitX=-0.006;exitY=0.329;exitDx=0;exitDy=0;exitPerimeter=0;entryX=1.003;entryY=0.325;entryDx=0;entryDy=0;entryPerimeter=0;strokeColor=#00FF00;strokeWidth=2;opacity=80;" parent="1" source="vId0Pkaoqg5BExLHZ7V7-160" target="vId0Pkaoqg5BExLHZ7V7-160" edge="1">
          <mxGeometry width="50" height="50" relative="1" as="geometry">
            <mxPoint x="370.96" y="800" as="sourcePoint" />
            <mxPoint x="420.96" y="750" as="targetPoint" />
          </mxGeometry>
        </mxCell>
        <mxCell id="vId0Pkaoqg5BExLHZ7V7-160" value="" style="rounded=0;whiteSpace=wrap;html=1;strokeColor=#FF0000;strokeWidth=2;fillColor=none;" parent="1" vertex="1">
          <mxGeometry x="280.96" y="700" width="160" height="120" as="geometry" />
        </mxCell>
        <mxCell id="vId0Pkaoqg5BExLHZ7V7-161" value="NEVER ACTIVE" style="rounded=0;whiteSpace=wrap;html=1;strokeColor=#0000FF;strokeWidth=2;fillColor=#DAE8FC;fontColor=#0000FF;" parent="1" vertex="1">
          <mxGeometry x="290.96" y="790" width="140" height="20" as="geometry" />
        </mxCell>
        <mxCell id="WRc-855LkblQIoHzW9oP-2" value="(a)" style="text;html=1;strokeColor=none;fillColor=none;align=center;verticalAlign=middle;whiteSpace=wrap;rounded=0;" parent="1" vertex="1">
          <mxGeometry x="130" y="20" width="60" height="20" as="geometry" />
        </mxCell>
        <mxCell id="WRc-855LkblQIoHzW9oP-3" value="(b)" style="text;html=1;strokeColor=none;fillColor=none;align=center;verticalAlign=middle;whiteSpace=wrap;rounded=0;" parent="1" vertex="1">
          <mxGeometry x="330.96000000000004" y="20" width="60" height="20" as="geometry" />
        </mxCell>
        <mxCell id="WRc-855LkblQIoHzW9oP-4" value="(c)" style="text;html=1;strokeColor=none;fillColor=none;align=center;verticalAlign=middle;whiteSpace=wrap;rounded=0;" parent="1" vertex="1">
          <mxGeometry x="530" y="20" width="60" height="20" as="geometry" />
        </mxCell>
        <mxCell id="WRc-855LkblQIoHzW9oP-5" value="(a)" style="text;html=1;strokeColor=none;fillColor=none;align=center;verticalAlign=middle;whiteSpace=wrap;rounded=0;" parent="1" vertex="1">
          <mxGeometry x="130" y="340" width="60" height="20" as="geometry" />
        </mxCell>
        <mxCell id="WRc-855LkblQIoHzW9oP-6" value="(b)" style="text;html=1;strokeColor=none;fillColor=none;align=center;verticalAlign=middle;whiteSpace=wrap;rounded=0;" parent="1" vertex="1">
          <mxGeometry x="330.96000000000004" y="340" width="60" height="20" as="geometry" />
        </mxCell>
        <mxCell id="WRc-855LkblQIoHzW9oP-7" value="(c)" style="text;html=1;strokeColor=none;fillColor=none;align=center;verticalAlign=middle;whiteSpace=wrap;rounded=0;" parent="1" vertex="1">
          <mxGeometry x="530" y="340" width="60" height="20" as="geometry" />
        </mxCell>
        <mxCell id="WRc-855LkblQIoHzW9oP-8" value="(a)" style="text;html=1;strokeColor=none;fillColor=none;align=center;verticalAlign=middle;whiteSpace=wrap;rounded=0;" parent="1" vertex="1">
          <mxGeometry x="130.96" y="660" width="60" height="20" as="geometry" />
        </mxCell>
        <mxCell id="WRc-855LkblQIoHzW9oP-9" value="(b)" style="text;html=1;strokeColor=none;fillColor=none;align=center;verticalAlign=middle;whiteSpace=wrap;rounded=0;" parent="1" vertex="1">
          <mxGeometry x="331.92" y="660" width="60" height="20" as="geometry" />
        </mxCell>
      </root>
    </mxGraphModel>
  </diagram>
  <diagram id="a6Vd4LNXrvQcYQN1hTv-" name="Page-2">
    <mxGraphModel dx="908" dy="535" grid="1" gridSize="10" guides="1" tooltips="1" connect="1" arrows="1" fold="1" page="1" pageScale="1" pageWidth="850" pageHeight="1100" math="0" shadow="0">
      <root>
        <mxCell id="0" />
        <mxCell id="1" parent="0" />
        <mxCell id="K-fYSqNujIdc640UtIC9-84" value="" style="rounded=0;whiteSpace=wrap;html=1;strokeColor=none;strokeWidth=4;fillColor=#DAE8FC;" parent="1" vertex="1">
          <mxGeometry x="890" y="130" width="140" height="60" as="geometry" />
        </mxCell>
        <mxCell id="K-fYSqNujIdc640UtIC9-85" value="" style="rounded=0;whiteSpace=wrap;html=1;strokeColor=none;strokeWidth=4;fillColor=#66B2FF;" parent="1" vertex="1">
          <mxGeometry x="890" y="160" width="140" height="30" as="geometry" />
        </mxCell>
        <mxCell id="K-fYSqNujIdc640UtIC9-86" value="" style="rounded=0;whiteSpace=wrap;html=1;strokeColor=#0000FF;strokeWidth=2;fillColor=none;" parent="1" vertex="1">
          <mxGeometry x="890" y="130" width="140" height="60" as="geometry" />
        </mxCell>
        <mxCell id="K-fYSqNujIdc640UtIC9-71" value="" style="rounded=0;whiteSpace=wrap;html=1;strokeColor=none;strokeWidth=4;fillColor=#DAE8FC;" parent="1" vertex="1">
          <mxGeometry x="690" y="130" width="140" height="60" as="geometry" />
        </mxCell>
        <mxCell id="K-fYSqNujIdc640UtIC9-74" value="" style="rounded=0;whiteSpace=wrap;html=1;strokeColor=none;strokeWidth=4;fillColor=#66B2FF;" parent="1" vertex="1">
          <mxGeometry x="690" y="140" width="140" height="50" as="geometry" />
        </mxCell>
        <mxCell id="K-fYSqNujIdc640UtIC9-75" value="&lt;font color=&quot;#0000ff&quot;&gt;&lt;b&gt;ACTIVE&lt;/b&gt;&lt;/font&gt;" style="rounded=0;whiteSpace=wrap;html=1;strokeColor=#0000FF;strokeWidth=4;fillColor=none;" parent="1" vertex="1">
          <mxGeometry x="690" y="130" width="140" height="60" as="geometry" />
        </mxCell>
        <mxCell id="K-fYSqNujIdc640UtIC9-9" value="" style="rounded=0;whiteSpace=wrap;html=1;strokeColor=none;strokeWidth=4;fillColor=#DAE8FC;" parent="1" vertex="1">
          <mxGeometry x="290" y="130" width="140" height="60" as="geometry" />
        </mxCell>
        <mxCell id="K-fYSqNujIdc640UtIC9-67" value="" style="rounded=0;whiteSpace=wrap;html=1;strokeColor=none;strokeWidth=4;fillColor=#66B2FF;" parent="1" vertex="1">
          <mxGeometry x="290" y="130" width="140" height="50" as="geometry" />
        </mxCell>
        <mxCell id="K-fYSqNujIdc640UtIC9-66" value="&lt;font color=&quot;#0000ff&quot;&gt;&lt;b&gt;ACTIVE&lt;/b&gt;&lt;/font&gt;" style="rounded=0;whiteSpace=wrap;html=1;strokeColor=#0000FF;strokeWidth=4;fillColor=none;" parent="1" vertex="1">
          <mxGeometry x="290" y="130" width="140" height="60" as="geometry" />
        </mxCell>
        <mxCell id="K-fYSqNujIdc640UtIC9-81" value="" style="rounded=0;whiteSpace=wrap;html=1;strokeColor=none;strokeWidth=4;fillColor=#DAE8FC;" parent="1" vertex="1">
          <mxGeometry x="90" y="130" width="140" height="60" as="geometry" />
        </mxCell>
        <mxCell id="K-fYSqNujIdc640UtIC9-82" value="" style="rounded=0;whiteSpace=wrap;html=1;strokeColor=none;strokeWidth=4;fillColor=#66B2FF;" parent="1" vertex="1">
          <mxGeometry x="90" y="130" width="140" height="30" as="geometry" />
        </mxCell>
        <mxCell id="K-fYSqNujIdc640UtIC9-83" value="" style="rounded=0;whiteSpace=wrap;html=1;strokeColor=#0000FF;strokeWidth=2;fillColor=none;" parent="1" vertex="1">
          <mxGeometry x="90" y="130" width="140" height="60" as="geometry" />
        </mxCell>
        <mxCell id="K-fYSqNujIdc640UtIC9-3" value="" style="rounded=0;whiteSpace=wrap;html=1;fillColor=none;" parent="1" vertex="1">
          <mxGeometry x="80" y="40" width="160" height="240" as="geometry" />
        </mxCell>
        <mxCell id="K-fYSqNujIdc640UtIC9-4" value="" style="group;fillColor=none;" parent="1" vertex="1" connectable="0">
          <mxGeometry x="270" y="100" width="160" height="120" as="geometry" />
        </mxCell>
        <mxCell id="K-fYSqNujIdc640UtIC9-5" value="" style="group" parent="1" vertex="1" connectable="0">
          <mxGeometry x="80" y="40" width="160" height="130" as="geometry" />
        </mxCell>
        <mxCell id="K-fYSqNujIdc640UtIC9-7" value="" style="rounded=0;whiteSpace=wrap;html=1;fillColor=none;" parent="1" vertex="1">
          <mxGeometry x="280" y="40" width="160" height="240" as="geometry" />
        </mxCell>
        <mxCell id="K-fYSqNujIdc640UtIC9-8" value="" style="group;fillColor=none;" parent="1" vertex="1" connectable="0">
          <mxGeometry x="280" y="80" width="160" height="120" as="geometry" />
        </mxCell>
        <mxCell id="K-fYSqNujIdc640UtIC9-13" value="page" style="text;html=1;strokeColor=none;fillColor=none;align=center;verticalAlign=middle;whiteSpace=wrap;rounded=0;" parent="1" vertex="1">
          <mxGeometry x="130" y="280" width="60" height="20" as="geometry" />
        </mxCell>
        <mxCell id="K-fYSqNujIdc640UtIC9-14" value="&lt;font color=&quot;#ff0000&quot;&gt;viewport&lt;/font&gt;" style="text;html=1;strokeColor=none;fillColor=none;align=center;verticalAlign=middle;whiteSpace=wrap;rounded=0;" parent="1" vertex="1">
          <mxGeometry x="20" y="40" width="60" height="20" as="geometry" />
        </mxCell>
        <mxCell id="K-fYSqNujIdc640UtIC9-15" value="&lt;font color=&quot;#0000ff&quot;&gt;section&lt;/font&gt;" style="text;html=1;strokeColor=none;fillColor=none;align=center;verticalAlign=middle;whiteSpace=wrap;rounded=0;" parent="1" vertex="1">
          <mxGeometry x="20" y="110" width="60" height="20" as="geometry" />
        </mxCell>
        <mxCell id="K-fYSqNujIdc640UtIC9-16" value="" style="shape=singleArrow;direction=south;whiteSpace=wrap;html=1;strokeColor=#FF0000;fillColor=#F8CECC;" parent="1" vertex="1">
          <mxGeometry x="250" y="80" width="20" height="40" as="geometry" />
        </mxCell>
        <mxCell id="K-fYSqNujIdc640UtIC9-52" value="&lt;font color=&quot;#ff0000&quot;&gt;viewport&lt;/font&gt;" style="text;html=1;strokeColor=none;fillColor=none;align=center;verticalAlign=middle;whiteSpace=wrap;rounded=0;" parent="1" vertex="1">
          <mxGeometry x="20" y="360" width="60" height="20" as="geometry" />
        </mxCell>
        <mxCell id="K-fYSqNujIdc640UtIC9-56" value="page" style="text;html=1;strokeColor=none;fillColor=none;align=center;verticalAlign=middle;whiteSpace=wrap;rounded=0;" parent="1" vertex="1">
          <mxGeometry x="130" y="520" width="60" height="20" as="geometry" />
        </mxCell>
        <mxCell id="K-fYSqNujIdc640UtIC9-57" value="" style="rounded=0;whiteSpace=wrap;html=1;fillColor=none;" parent="1" vertex="1">
          <mxGeometry x="280" y="360" width="160" height="160" as="geometry" />
        </mxCell>
        <mxCell id="K-fYSqNujIdc640UtIC9-64" value="" style="shape=singleArrow;direction=south;whiteSpace=wrap;html=1;strokeColor=#FF0000;fillColor=#F8CECC;" parent="1" vertex="1">
          <mxGeometry x="450" y="100" width="20" height="40" as="geometry" />
        </mxCell>
        <mxCell id="K-fYSqNujIdc640UtIC9-44" value="" style="rounded=0;whiteSpace=wrap;html=1;strokeColor=#FF0000;strokeWidth=2;fillColor=none;" parent="1" vertex="1">
          <mxGeometry x="80" y="40" width="160" height="120" as="geometry" />
        </mxCell>
        <mxCell id="K-fYSqNujIdc640UtIC9-47" value="" style="rounded=0;whiteSpace=wrap;html=1;strokeColor=#FF0000;strokeWidth=2;fillColor=none;" parent="1" vertex="1">
          <mxGeometry x="280" y="60" width="160" height="120" as="geometry" />
        </mxCell>
        <mxCell id="K-fYSqNujIdc640UtIC9-68" value="" style="group;fillColor=none;" parent="1" vertex="1" connectable="0">
          <mxGeometry x="670" y="100" width="160" height="120" as="geometry" />
        </mxCell>
        <mxCell id="K-fYSqNujIdc640UtIC9-69" value="" style="rounded=0;whiteSpace=wrap;html=1;fillColor=none;" parent="1" vertex="1">
          <mxGeometry x="680" y="40" width="160" height="240" as="geometry" />
        </mxCell>
        <mxCell id="K-fYSqNujIdc640UtIC9-70" value="" style="group;fillColor=none;" parent="1" vertex="1" connectable="0">
          <mxGeometry x="680" y="80" width="160" height="120" as="geometry" />
        </mxCell>
        <mxCell id="K-fYSqNujIdc640UtIC9-72" value="" style="shape=singleArrow;direction=south;whiteSpace=wrap;html=1;strokeColor=#FF0000;fillColor=#F8CECC;" parent="1" vertex="1">
          <mxGeometry x="850" y="180" width="20" height="40" as="geometry" />
        </mxCell>
        <mxCell id="K-fYSqNujIdc640UtIC9-73" value="" style="rounded=0;whiteSpace=wrap;html=1;strokeColor=#FF0000;strokeWidth=2;fillColor=none;" parent="1" vertex="1">
          <mxGeometry x="680" y="140" width="160" height="120" as="geometry" />
        </mxCell>
        <mxCell id="K-fYSqNujIdc640UtIC9-76" value="" style="rounded=0;whiteSpace=wrap;html=1;fillColor=none;" parent="1" vertex="1">
          <mxGeometry x="880" y="40" width="160" height="240" as="geometry" />
        </mxCell>
        <mxCell id="K-fYSqNujIdc640UtIC9-77" value="" style="group" parent="1" vertex="1" connectable="0">
          <mxGeometry x="880" y="40" width="160" height="130" as="geometry" />
        </mxCell>
        <mxCell id="K-fYSqNujIdc640UtIC9-79" value="" style="shape=singleArrow;direction=south;whiteSpace=wrap;html=1;strokeColor=#FF0000;fillColor=#F8CECC;" parent="1" vertex="1">
          <mxGeometry x="1050" y="200" width="20" height="40" as="geometry" />
        </mxCell>
        <mxCell id="K-fYSqNujIdc640UtIC9-80" value="" style="rounded=0;whiteSpace=wrap;html=1;strokeColor=#FF0000;strokeWidth=2;fillColor=none;" parent="1" vertex="1">
          <mxGeometry x="880" y="160" width="160" height="120" as="geometry" />
        </mxCell>
        <mxCell id="K-fYSqNujIdc640UtIC9-95" value="" style="rounded=0;whiteSpace=wrap;html=1;strokeColor=none;strokeWidth=4;fillColor=#DAE8FC;" parent="1" vertex="1">
          <mxGeometry x="490" y="130" width="140" height="60" as="geometry" />
        </mxCell>
        <mxCell id="K-fYSqNujIdc640UtIC9-96" value="" style="rounded=0;whiteSpace=wrap;html=1;strokeColor=none;strokeWidth=4;fillColor=#66B2FF;" parent="1" vertex="1">
          <mxGeometry x="490" y="130" width="140" height="60" as="geometry" />
        </mxCell>
        <mxCell id="K-fYSqNujIdc640UtIC9-97" value="&lt;font color=&quot;#0000ff&quot;&gt;&lt;b&gt;ACTIVE&lt;/b&gt;&lt;/font&gt;" style="rounded=0;whiteSpace=wrap;html=1;strokeColor=#0000FF;strokeWidth=4;fillColor=none;" parent="1" vertex="1">
          <mxGeometry x="490" y="130" width="140" height="60" as="geometry" />
        </mxCell>
        <mxCell id="K-fYSqNujIdc640UtIC9-98" value="" style="group;fillColor=none;" parent="1" vertex="1" connectable="0">
          <mxGeometry x="470" y="100" width="160" height="120" as="geometry" />
        </mxCell>
        <mxCell id="K-fYSqNujIdc640UtIC9-99" value="" style="rounded=0;whiteSpace=wrap;html=1;fillColor=none;" parent="1" vertex="1">
          <mxGeometry x="480" y="40" width="160" height="240" as="geometry" />
        </mxCell>
        <mxCell id="K-fYSqNujIdc640UtIC9-100" value="" style="group;fillColor=none;" parent="1" vertex="1" connectable="0">
          <mxGeometry x="480" y="80" width="160" height="120" as="geometry" />
        </mxCell>
        <mxCell id="K-fYSqNujIdc640UtIC9-101" value="" style="shape=singleArrow;direction=south;whiteSpace=wrap;html=1;strokeColor=#FF0000;fillColor=#F8CECC;" parent="1" vertex="1">
          <mxGeometry x="650" y="140" width="20" height="40" as="geometry" />
        </mxCell>
        <mxCell id="K-fYSqNujIdc640UtIC9-102" value="" style="rounded=0;whiteSpace=wrap;html=1;strokeColor=#FF0000;strokeWidth=2;fillColor=none;" parent="1" vertex="1">
          <mxGeometry x="480" y="100" width="160" height="120" as="geometry" />
        </mxCell>
        <mxCell id="K-fYSqNujIdc640UtIC9-104" value="" style="rounded=0;whiteSpace=wrap;html=1;strokeColor=none;strokeWidth=4;fillColor=#DAE8FC;" parent="1" vertex="1">
          <mxGeometry x="90" y="370" width="140" height="20" as="geometry" />
        </mxCell>
        <mxCell id="K-fYSqNujIdc640UtIC9-105" value="" style="rounded=0;whiteSpace=wrap;html=1;strokeColor=none;strokeWidth=4;fillColor=#66B2FF;" parent="1" vertex="1">
          <mxGeometry x="90" y="370" width="140" height="20" as="geometry" />
        </mxCell>
        <mxCell id="K-fYSqNujIdc640UtIC9-106" value="&lt;font color=&quot;#0000ff&quot;&gt;&lt;b&gt;IMMEDIATELY ACTIVE&lt;/b&gt;&lt;/font&gt;" style="rounded=0;whiteSpace=wrap;html=1;strokeColor=#0000FF;strokeWidth=4;fillColor=none;" parent="1" vertex="1">
          <mxGeometry x="90" y="370" width="140" height="20" as="geometry" />
        </mxCell>
        <mxCell id="K-fYSqNujIdc640UtIC9-107" value="" style="rounded=0;whiteSpace=wrap;html=1;strokeColor=none;strokeWidth=4;fillColor=#DAE8FC;" parent="1" vertex="1">
          <mxGeometry x="90" y="410" width="140" height="20" as="geometry" />
        </mxCell>
        <mxCell id="K-fYSqNujIdc640UtIC9-108" value="" style="rounded=0;whiteSpace=wrap;html=1;strokeColor=none;strokeWidth=4;fillColor=#66B2FF;" parent="1" vertex="1">
          <mxGeometry x="90" y="410" width="140" height="20" as="geometry" />
        </mxCell>
        <mxCell id="K-fYSqNujIdc640UtIC9-109" value="" style="rounded=0;whiteSpace=wrap;html=1;strokeColor=#0000FF;strokeWidth=2;fillColor=none;" parent="1" vertex="1">
          <mxGeometry x="90" y="410" width="140" height="20" as="geometry" />
        </mxCell>
        <mxCell id="K-fYSqNujIdc640UtIC9-113" value="" style="rounded=0;whiteSpace=wrap;html=1;strokeColor=none;strokeWidth=4;fillColor=#DAE8FC;" parent="1" vertex="1">
          <mxGeometry x="290" y="450" width="140" height="20" as="geometry" />
        </mxCell>
        <mxCell id="K-fYSqNujIdc640UtIC9-114" value="" style="rounded=0;whiteSpace=wrap;html=1;strokeColor=none;strokeWidth=4;fillColor=#66B2FF;" parent="1" vertex="1">
          <mxGeometry x="290" y="450" width="140" height="20" as="geometry" />
        </mxCell>
        <mxCell id="K-fYSqNujIdc640UtIC9-115" value="" style="rounded=0;whiteSpace=wrap;html=1;strokeColor=#0000FF;strokeWidth=4;fillColor=none;" parent="1" vertex="1">
          <mxGeometry x="290" y="450" width="140" height="20" as="geometry" />
        </mxCell>
        <mxCell id="K-fYSqNujIdc640UtIC9-116" value="&lt;font color=&quot;#0000ff&quot;&gt;&lt;b&gt;ACTIVE&lt;/b&gt;&lt;/font&gt;" style="rounded=0;whiteSpace=wrap;html=1;strokeColor=#FF0000;strokeWidth=2;fillColor=none;" parent="1" vertex="1">
          <mxGeometry x="280" y="400" width="160" height="120" as="geometry" />
        </mxCell>
        <mxCell id="K-fYSqNujIdc640UtIC9-117" value="" style="rounded=0;whiteSpace=wrap;html=1;strokeColor=none;strokeWidth=4;fillColor=#DAE8FC;" parent="1" vertex="1">
          <mxGeometry x="290" y="490" width="140" height="20" as="geometry" />
        </mxCell>
        <mxCell id="K-fYSqNujIdc640UtIC9-118" value="" style="rounded=0;whiteSpace=wrap;html=1;strokeColor=none;strokeWidth=4;fillColor=#66B2FF;" parent="1" vertex="1">
          <mxGeometry x="290" y="490" width="140" height="20" as="geometry" />
        </mxCell>
        <mxCell id="K-fYSqNujIdc640UtIC9-119" value="&lt;font color=&quot;#0000ff&quot;&gt;NEVER ACTIVE&lt;/font&gt;" style="rounded=0;whiteSpace=wrap;html=1;strokeColor=#0000FF;strokeWidth=2;fillColor=none;" parent="1" vertex="1">
          <mxGeometry x="290" y="490" width="140" height="20" as="geometry" />
        </mxCell>
        <mxCell id="K-fYSqNujIdc640UtIC9-120" value="" style="rounded=0;whiteSpace=wrap;html=1;strokeColor=none;strokeWidth=4;fillColor=#DAE8FC;" parent="1" vertex="1">
          <mxGeometry x="120" y="680" width="80" height="40" as="geometry" />
        </mxCell>
        <mxCell id="K-fYSqNujIdc640UtIC9-121" value="" style="rounded=0;whiteSpace=wrap;html=1;strokeColor=none;strokeWidth=4;fillColor=#66B2FF;" parent="1" vertex="1">
          <mxGeometry x="120" y="680" width="80" height="40" as="geometry" />
        </mxCell>
        <mxCell id="K-fYSqNujIdc640UtIC9-122" value="&lt;font color=&quot;#0000ff&quot;&gt;&lt;b&gt;ACTIVE&lt;/b&gt;&lt;/font&gt;" style="rounded=0;whiteSpace=wrap;html=1;strokeColor=#0000FF;strokeWidth=4;fillColor=none;" parent="1" vertex="1">
          <mxGeometry x="120" y="680" width="80" height="40" as="geometry" />
        </mxCell>
        <mxCell id="K-fYSqNujIdc640UtIC9-128" value="" style="rounded=0;whiteSpace=wrap;html=1;strokeColor=none;strokeWidth=4;fillColor=#DAE8FC;" parent="1" vertex="1">
          <mxGeometry x="350" y="620" width="20" height="160" as="geometry" />
        </mxCell>
        <mxCell id="K-fYSqNujIdc640UtIC9-129" value="" style="rounded=0;whiteSpace=wrap;html=1;strokeColor=none;strokeWidth=4;fillColor=#66B2FF;" parent="1" vertex="1">
          <mxGeometry x="350" y="670" width="20" height="60" as="geometry" />
        </mxCell>
        <mxCell id="K-fYSqNujIdc640UtIC9-130" value="" style="rounded=0;whiteSpace=wrap;html=1;strokeColor=#0000FF;strokeWidth=2;fillColor=none;" parent="1" vertex="1">
          <mxGeometry x="350" y="620" width="20" height="160" as="geometry" />
        </mxCell>
        <mxCell id="K-fYSqNujIdc640UtIC9-133" value="" style="rounded=0;whiteSpace=wrap;html=1;fillColor=none;" parent="1" vertex="1">
          <mxGeometry x="110" y="660" width="100" height="80" as="geometry" />
        </mxCell>
        <mxCell id="K-fYSqNujIdc640UtIC9-134" value="" style="rounded=0;whiteSpace=wrap;html=1;fillColor=none;" parent="1" vertex="1">
          <mxGeometry x="340" y="600" width="40" height="200" as="geometry" />
        </mxCell>
        <mxCell id="K-fYSqNujIdc640UtIC9-135" value="" style="rounded=0;whiteSpace=wrap;html=1;strokeColor=#FF0000;strokeWidth=2;fillColor=none;" parent="1" vertex="1">
          <mxGeometry x="110" y="670" width="100" height="60" as="geometry" />
        </mxCell>
        <mxCell id="K-fYSqNujIdc640UtIC9-136" value="3/8" style="rounded=0;whiteSpace=wrap;html=1;strokeColor=#FF0000;strokeWidth=2;fillColor=none;" parent="1" vertex="1">
          <mxGeometry x="340" y="670" width="40" height="60" as="geometry" />
        </mxCell>
        <mxCell id="K-fYSqNujIdc640UtIC9-138" value="resize window" style="shape=singleArrow;whiteSpace=wrap;html=1;verticalAlign=bottom;labelPosition=center;verticalLabelPosition=top;align=center;fillColor=#d5e8d4;strokeColor=#82b366;" parent="1" vertex="1">
          <mxGeometry x="260" y="690" width="40" height="20" as="geometry" />
        </mxCell>
        <mxCell id="K-fYSqNujIdc640UtIC9-144" value="" style="rounded=0;whiteSpace=wrap;html=1;fillColor=none;" parent="1" vertex="1">
          <mxGeometry x="80" y="360" width="160" height="160" as="geometry" />
        </mxCell>
        <mxCell id="K-fYSqNujIdc640UtIC9-55" value="" style="rounded=0;whiteSpace=wrap;html=1;strokeColor=#FF0000;strokeWidth=2;fillColor=none;" parent="1" vertex="1">
          <mxGeometry x="80" y="360" width="160" height="120" as="geometry" />
        </mxCell>
        <mxCell id="K-fYSqNujIdc640UtIC9-146" value="&lt;font color=&quot;#ff0000&quot;&gt;viewport&lt;/font&gt;" style="text;html=1;strokeColor=none;fillColor=none;align=center;verticalAlign=middle;whiteSpace=wrap;rounded=0;" parent="1" vertex="1">
          <mxGeometry x="50" y="670" width="60" height="20" as="geometry" />
        </mxCell>
        <mxCell id="K-fYSqNujIdc640UtIC9-147" value="page" style="text;html=1;strokeColor=none;fillColor=none;align=center;verticalAlign=middle;whiteSpace=wrap;rounded=0;" parent="1" vertex="1">
          <mxGeometry x="130" y="740" width="60" height="20" as="geometry" />
        </mxCell>
        <mxCell id="cIGrZauJQYsj2KXnaSbg-1" value="" style="rounded=0;whiteSpace=wrap;html=1;fillColor=none;strokeColor=none;" parent="1" vertex="1">
          <mxGeometry x="210" y="10" width="1060" height="280" as="geometry" />
        </mxCell>
        <mxCell id="DQh0fYLUVUUuSJ-z8C7i-1" value="" style="rounded=0;whiteSpace=wrap;html=1;fillColor=none;strokeColor=none;" parent="1" vertex="1">
          <mxGeometry x="20" y="340" width="460" height="200" as="geometry" />
        </mxCell>
        <mxCell id="DQh0fYLUVUUuSJ-z8C7i-3" value="" style="rounded=0;whiteSpace=wrap;html=1;fillColor=none;strokeColor=none;" parent="1" vertex="1">
          <mxGeometry x="20" y="600" width="460" height="200" as="geometry" />
        </mxCell>
        <mxCell id="RPsYL9xewCrGqzB8PfIQ-1" value="(a)" style="text;html=1;strokeColor=none;fillColor=none;align=center;verticalAlign=middle;whiteSpace=wrap;rounded=0;" parent="1" vertex="1">
          <mxGeometry x="130" y="20" width="60" height="20" as="geometry" />
        </mxCell>
        <mxCell id="RPsYL9xewCrGqzB8PfIQ-2" value="(b)" style="text;html=1;strokeColor=none;fillColor=none;align=center;verticalAlign=middle;whiteSpace=wrap;rounded=0;" parent="1" vertex="1">
          <mxGeometry x="330.96000000000004" y="20" width="60" height="20" as="geometry" />
        </mxCell>
        <mxCell id="RPsYL9xewCrGqzB8PfIQ-3" value="(c)" style="text;html=1;strokeColor=none;fillColor=none;align=center;verticalAlign=middle;whiteSpace=wrap;rounded=0;" parent="1" vertex="1">
          <mxGeometry x="530" y="20" width="60" height="20" as="geometry" />
        </mxCell>
        <mxCell id="RPsYL9xewCrGqzB8PfIQ-4" value="(d)" style="text;html=1;strokeColor=none;fillColor=none;align=center;verticalAlign=middle;whiteSpace=wrap;rounded=0;" parent="1" vertex="1">
          <mxGeometry x="730" y="20" width="60" height="20" as="geometry" />
        </mxCell>
        <mxCell id="RPsYL9xewCrGqzB8PfIQ-5" value="(e)" style="text;html=1;strokeColor=none;fillColor=none;align=center;verticalAlign=middle;whiteSpace=wrap;rounded=0;" parent="1" vertex="1">
          <mxGeometry x="930" y="20" width="60" height="20" as="geometry" />
        </mxCell>
        <mxCell id="RPsYL9xewCrGqzB8PfIQ-6" value="(a)" style="text;html=1;strokeColor=none;fillColor=none;align=center;verticalAlign=middle;whiteSpace=wrap;rounded=0;" parent="1" vertex="1">
          <mxGeometry x="130" y="340" width="60" height="20" as="geometry" />
        </mxCell>
        <mxCell id="RPsYL9xewCrGqzB8PfIQ-7" value="(b)" style="text;html=1;strokeColor=none;fillColor=none;align=center;verticalAlign=middle;whiteSpace=wrap;rounded=0;" parent="1" vertex="1">
          <mxGeometry x="330.96000000000004" y="340" width="60" height="20" as="geometry" />
        </mxCell>
        <mxCell id="RPsYL9xewCrGqzB8PfIQ-8" value="" style="rounded=0;whiteSpace=wrap;html=1;fillColor=none;strokeColor=none;" parent="1" vertex="1">
          <mxGeometry x="20" y="20" width="1060" height="280" as="geometry" />
        </mxCell>
        <mxCell id="6eosvNuhSVdB4zkzAdxd-1" value="50% &amp;lt; 60% &quot;out&quot;" style="text;html=1;strokeColor=none;fillColor=none;align=center;verticalAlign=middle;whiteSpace=wrap;rounded=0;" vertex="1" parent="1">
          <mxGeometry x="90" y="110" width="140" height="20" as="geometry" />
        </mxCell>
        <mxCell id="6eosvNuhSVdB4zkzAdxd-2" value="90%&amp;nbsp;≥ 60% &quot;in&quot;" style="text;html=1;strokeColor=none;fillColor=none;align=center;verticalAlign=middle;whiteSpace=wrap;rounded=0;" vertex="1" parent="1">
          <mxGeometry x="290" y="110" width="140" height="20" as="geometry" />
        </mxCell>
        <mxCell id="6eosvNuhSVdB4zkzAdxd-3" value="100%&amp;nbsp;≥ 60% &quot;in&quot;" style="text;html=1;strokeColor=none;fillColor=none;align=center;verticalAlign=middle;whiteSpace=wrap;rounded=0;" vertex="1" parent="1">
          <mxGeometry x="490" y="110" width="140" height="20" as="geometry" />
        </mxCell>
        <mxCell id="6eosvNuhSVdB4zkzAdxd-4" value="90%&amp;nbsp;≥ 60% &quot;in&quot;" style="text;html=1;strokeColor=none;fillColor=none;align=center;verticalAlign=middle;whiteSpace=wrap;rounded=0;" vertex="1" parent="1">
          <mxGeometry x="690" y="190" width="140" height="20" as="geometry" />
        </mxCell>
        <mxCell id="6eosvNuhSVdB4zkzAdxd-5" value="50% &amp;lt; 60% &quot;out&quot;" style="text;html=1;strokeColor=none;fillColor=none;align=center;verticalAlign=middle;whiteSpace=wrap;rounded=0;" vertex="1" parent="1">
          <mxGeometry x="890" y="190" width="140" height="20" as="geometry" />
        </mxCell>
      </root>
    </mxGraphModel>
  </diagram>
</mxfile>
